# xmcd
#
# Track frame offsets:
#	150
#	20749
#	39873
#	61362
#	78099
#	99763
#	115238
#	128786
#	158269
#	181209
#	212331
#	237960
#	258795
#
# Disc length: 3674 seconds
# Revision: 0
# Processed by: cddbd v1.5.2PL0 Copyright (c) Steve Scherf et al.
# Submitted via: dBpowerAMP V12.0
#
DISCID=8f0e580d
DTITLE=The Doodaddies - The Doodaddies   
DYEAR=2014
DGENRE=Blues
TTITLE0=Tell Me why
TTITLE1=I'm A Lonely Man
TTITLE2=Orange Soda
TTITLE3=I Got To Go
TTITLE4=Love Me Like You Mean It
TTITLE5=Come Back Baby
TTITLE6=Won't Throw It All Away
TTITLE7=Motherless World
TTITLE8=Pretty Baby
TTITLE9=Stop Break'n Down
TTITLE10=Just Around the Corner
TTITLE11=Tomorrow Night
TTITLE12=Shake Dancer
EXTD=
EXTT0=
EXTT1=
EXTT2=
EXTT3=
EXTT4=
EXTT5=
EXTT6=
EXTT7=
EXTT8=
EXTT9=
EXTT10=
EXTT11=
EXTT12=
PLAYORDER=
